
    <svg
      width="150"
      height="150"
      viewBox="0 0 150 150"
      fill="none"
      xmlns="http://www.w3.org/2000/svg"
    >
      <style>
        #fish1 {
          animation: rotateClockwise 3s infinite alternate; /* Rotate clockwise */
        }

        #fish2 {
          animation: rotateCounterClockwise 3s infinite alternate; /* Rotate counterclockwise */
        }

        @keyframes rotateClockwise {
          from {
            transform: rotate(0deg);
          }
          to {
            transform: rotate(4deg);
          }
        }

        @keyframes rotateCounterClockwise {
          from {
            transform: rotate(0deg);
          }
          to {
            transform: rotate(-4deg);
          }
        }
      </style>
      <g id="fishies">
        <g id="fish2">
          <g id="Vector 9">
            <path
              d="M120.39 89.5956C104.083 98.3757 61.816 95.1475 65.9846 67.2916C71.2422 49.4532 81.6298 47.4191 92.8702 47.2309C98.3821 47.1386 104.144 48.5636 109.816 51.3816C122.938 57.9012 128.021 63.2314 132.217 69.807L137.284 66.9646L143.358 62.5485C146.03 75.7807 145.488 82.5842 139.77 91.9598L130.515 83.7591C128.674 85.0521 125.653 86.7617 120.39 89.5956Z"
              fill="#E99005"
            />
            <path
              d="M132.217 69.807C133.533 71.8696 130.958 67.7522 136.803 77.2203C133.702 81.1556 130.089 84.0514 130.515 83.7591M132.217 69.807C128.021 63.2314 122.938 57.9012 109.816 51.3816C104.144 48.5636 98.3821 47.1386 92.8702 47.2309C81.6298 47.4191 71.2422 49.4532 65.9846 67.2916C61.816 95.1475 104.083 98.3757 120.39 89.5956C125.653 86.7617 128.674 85.0521 130.515 83.7591M132.217 69.807L137.284 66.9646L143.358 62.5485C146.03 75.7807 145.488 82.5842 139.77 91.9598L130.515 83.7591"
              stroke="#E99005"
            />
          </g>
          <path
            id="Vector 10"
            d="M111.75 75C112.385 75.9171 112.052 77.102 112.75 78C113.244 78.6345 113.787 78.9748 114.556 79.1944C117.432 80.0163 118.785 76.8953 119.5 74.75"
            stroke="black"
            stroke-linecap="round"
          />
          <path
            id="Vector 11"
            d="M113.75 79.75C113.054 81.0021 111.687 82.0921 110.306 82C108.888 81.9055 107.061 80.1587 108 78.75"
            stroke="black"
            stroke-linecap="round"
          />
          <path
            id="Vector 12"
            d="M116.25 80.25C116.316 81.9546 117.102 84 119.111 84C121.102 84 120.149 80.8003 121.25 80.25"
            stroke="black"
            stroke-linecap="round"
          />
          <path
            id="Vector 13"
            d="M85 66.25C83.6585 66.25 85.0184 63.648 85.4444 64.5C85.9593 65.5297 84.1464 66.7134 84.75 65.1667C85.4054 63.4873 86.3189 66.1593 85.3056 66.8889C84.6222 67.3809 83.5654 66.2796 84.3056 66.25C85.7797 66.191 84.4494 66.4608 84.5 65.5C84.5842 63.8993 86.3925 66 84.5556 66C84.2152 66 84.5964 64.6189 84.0556 66.4444C83.916 66.9154 84.4811 67.0675 84.8472 66.9861C85.1267 66.924 85 66.2157 85 66"
            stroke="black"
            stroke-linecap="round"
          />
        </g>
        <g id="fish1">
          <g id="Vector 8">
            <path
              d="M80.3968 106.64C63.727 123.251 11.4257 133.978 6.72379 97.8689C6.84617 73.8423 18.7102 67.6884 32.2528 63.5334C38.8937 61.496 46.3683 61.259 54.2213 62.7864C72.3897 66.3201 80.409 71.1784 87.7895 77.8956L92.929 72.592L98.7378 64.979C106.603 80.5091 108.328 89.1624 104.687 102.821L90.6116 95.847C88.8354 98.0977 85.7771 101.278 80.3968 106.64Z"
              fill="black"
            />
            <path
              d="M87.7895 77.8956C90.1046 80.0027 85.5464 75.7783 95.9362 85.5187C93.5589 91.4963 90.1986 96.3591 90.6116 95.847M87.7895 77.8956C80.409 71.1784 72.3897 66.3201 54.2213 62.7864C46.3683 61.259 38.8937 61.496 32.2528 63.5334C18.7102 67.6884 6.84617 73.8423 6.72379 97.8689C11.4257 133.978 63.727 123.251 80.3968 106.64C85.7771 101.278 88.8354 98.0977 90.6116 95.847M87.7895 77.8956L92.929 72.592L98.7378 64.979C106.603 80.5091 108.328 89.1624 104.687 102.821L90.6116 95.847"
              stroke="black"
            />
          </g>
          <path
            id="Vector"
            d="M56.927 93.4265C56.927 94.188 57.2891 95.0844 57.6479 95.7496C58.2365 96.8405 59.6329 96.8736 60.7753 96.8056C62.0448 96.7299 62.9685 95.5774 63.5936 94.6262C64.2933 93.5616 64.5112 92.2362 64.5112 91M63.3315 96.1765C63.7241 96.1765 63.7866 96.4716 64.1086 96.7067C65.1887 97.4955 66.1274 97.7342 67.5169 97.529C68.1085 97.4416 68.7962 97.2528 69.118 96.7337C69.5492 96.0379 70.0885 95.4096 70.5084 94.7071C70.962 93.9484 70.9021 92.996 70.9157 92.1503C70.922 91.7632 71 91.3883 71 91M63.9213 97.4706C63.9213 97.9802 63.7758 98.4537 63.5843 98.9265C63.4134 99.3483 63.4749 99.947 63.2566 100.319C62.7477 101.188 61.2641 101.44 60.3727 101.748C59.9657 101.889 59.6951 102 59.2678 102C58.4216 102 57.4934 101.366 56.7584 100.993C56.5322 100.879 56.2833 100.708 56.2481 100.472C56.234 100.377 56.0784 100.258 56 100.221"
            stroke="#E99005"
            stroke-linecap="round"
          />
          <path
            id="Vector 14"
            d="M21 93C20.8705 93.0162 19.401 95.104 20.6389 94.9861C21.4088 94.9128 22 94.4412 22 93.6389C22 92.9757 20.9828 93.2159 20.8056 93.6944C20.7336 93.8886 20.6964 95.2887 21 94.8333C21.35 94.3083 21.2661 92.7778 20.4028 92.7778C20.2336 92.7778 19.2098 95.292 20.8889 94.9722C22.6271 94.6411 22.0275 92.9196 20.5 93C19.6964 93.0423 19.7088 95 20.625 95C20.8772 95 21.8604 95.1409 21.9722 94.8333C22.1386 94.3758 21.8442 93.066 21.25 93C20.324 92.8971 19.4311 93.1377 19 94"
            stroke="#E99005"
            stroke-linecap="round"
          />
        </g>
      </g>
    </svg>
