<svg width="124" height="142" viewBox="0 0 124 142" fill="none" xmlns="http://www.w3.org/2000/svg">
<path d="M123.573 58.7505C126.245 92.4727 99.1479 104.207 78.7275 105.825C58.3071 107.443 11.4314 97.8234 8.7594 64.1013C6.08743 30.3792 9.83116 10.8709 30.2516 9.25293C62.2477 -4.33069 120.901 25.0284 123.573 58.7505Z" fill="#E99005"/>
<path d="M60.6088 41.2024C71.713 41.8652 73.9895 38.9723 89.0428 41.2024C104.096 43.4325 118.088 59.1553 116.919 71.8665C117.108 90.8265 112.459 99.7429 120.264 120.371C128.07 141 121.084 139.392 121.937 141C106.714 125.19 97.7625 86.165 100.193 88.0348C100.193 88.0348 18.2367 86.3622 10.9888 86.3622C3.74093 86.3622 0.424518 78.0521 3.74093 69.0788L10.9888 57.3707C-3.45789 45.618 -0.00229003 38.3285 10.9888 25.0341C10.9888 25.0341 12.6614 12.2109 14.334 6.07812C16.0066 -0.0546955 26.0421 25.0341 26.0421 25.0341C31.6984 26.6785 34.9942 27.2893 42.2104 25.0341C42.2104 25.0341 55.5911 4.96307 57.2637 7.7507C58.9362 10.5383 57.2637 28.3793 57.2637 28.3793C57.3428 37.1035 57.9762 40.2114 60.6088 41.2024Z" stroke="black"/>
<path d="M43.4907 44.6302L43.4772 44.6347L43.4639 44.6401C42.4629 45.0414 41.0564 44.9783 39.5279 44.4897C38.0395 44.0139 36.5025 43.1548 35.2357 42.0481C34.3899 40.3903 34.2611 38.6457 34.7378 37.2091C35.2192 35.7581 36.3234 34.5975 37.9993 34.1208L38.0562 34.1046L38.1078 34.0756C39.8103 33.1173 41.1898 33.0457 42.5927 33.6233C44.0505 34.2236 45.5736 35.5395 47.4863 37.4926C48.3986 38.4242 48.8102 39.2276 48.9117 39.9035C49.0109 40.5642 48.8239 41.17 48.3946 41.7445C47.5053 42.9347 45.6326 43.9104 43.4907 44.6302Z" stroke="#100B09"/>
<path d="M41.0953 38.4148C41.0953 39.4705 39.7019 40.6449 38.7165 40.6449C37.7312 40.6449 36.6351 39.4705 36.6351 38.4148C36.6351 37.3591 38.0286 36.1846 39.0139 36.1846C39.9992 36.1846 41.0953 37.3591 41.0953 38.4148Z" fill="#100B09"/>
<path d="M17.6791 36.7422C17.6791 37.534 16.634 38.4148 15.895 38.4148C15.1561 38.4148 14.334 37.534 14.334 36.7422C14.334 35.9504 15.3791 35.0696 16.1181 35.0696C16.8571 35.0696 17.6791 35.9504 17.6791 36.7422Z" fill="#100B09"/>
<path d="M14.4728 32.7623L14.4851 32.7587L14.4973 32.7545C16.1625 32.1792 17.7023 32.8395 19.632 34.6C20.1625 35.8359 20.1795 37.4298 19.7049 38.8139C19.2192 40.2303 18.2552 41.3355 16.9217 41.6602L16.87 41.6728L16.8222 41.6959C15.2991 42.4328 14.5404 42.4555 13.8461 42.0995C13.4637 41.9035 13.0646 41.5738 12.5676 41.0776C12.2217 40.7322 11.8485 40.3272 11.4127 39.8544C11.2207 39.646 11.0165 39.4244 10.7971 39.189C10.153 38.4976 9.87751 37.8353 9.8357 37.2316C9.79373 36.6256 9.98337 36.0214 10.3721 35.4422C11.16 34.2682 12.7241 33.2676 14.4728 32.7623Z" stroke="#100B09"/>
</svg>
