<svg width="97" height="136" viewBox="0 0 97 136" fill="none" xmlns="http://www.w3.org/2000/svg">
<path d="M8.07103 57.1438C14.9443 79.343 26.4723 94.1768 50.6019 91.3355C74.7315 88.4943 97.8007 79.8127 92.1614 46.39C85.2872 16.9475 71.9623 2.75917 47.8326 5.60045C15.4849 9.40941 1.1978 34.9446 8.07103 57.1438Z" fill="#E99005"/>
<rect x="7" y="48" width="5" height="88" fill="#E99005"/>
<path d="M33 89.5C43.8787 62.2846 51.3045 45.3849 70 8.5C73.1283 10.49 74.2558 11.4572 75.5 13C62.8504 47.0359 54.3261 63.6922 38 91.5L33 89.5Z" stroke="black"/>
<path d="M7.5 37.5C32.1386 50.0806 50.1566 60.2236 83 79.5C80.6531 80.7904 79.1554 82.6649 77.5 83C46.5539 67.8048 30.6628 57.6062 6.2122 41.8166C7.23409 40.9018 6.47811 38.4148 7.5 37.5Z" stroke="black"/>
<path d="M6.22935 46.7043C27.7294 64.2043 43.4744 65.8966 76.3177 85.1729C73.9708 86.4634 72.1554 86.6649 70.5 87C39.5539 71.8049 30.9506 69.7896 6.49999 54C7.52189 53.0853 5.20745 47.619 6.22935 46.7043Z" stroke="black" stroke-width="0.5"/>
<line x1="10.2145" y1="28.5484" x2="50.2145" y2="47.5484" stroke="#1D1201"/>
<line x1="60.2293" y1="51.5557" x2="91.2293" y2="67.5557" stroke="#1D1201"/>
<line x1="10.2145" y1="28.5484" x2="50.2145" y2="47.5484" stroke="#1D1201"/>
<line x1="60.2293" y1="51.5557" x2="91.2293" y2="67.5557" stroke="#1D1201"/>
<line x1="66.565" y1="7.92506" x2="39.9721" y2="43.3343" stroke="#1D1201" stroke-width="0.5"/>
<line x1="24.2109" y1="65.1342" x2="17.2109" y2="76.1342" stroke="#1D1201" stroke-width="0.5"/>
<path d="M47.0251 57L55.5 59L44.5 79.5L38.5 77L47.0251 57Z" fill="#E99005"/>
<line y1="-0.2" x2="14.048" y2="-0.2" transform="matrix(-0.673722 0.738985 -0.787123 -0.616796 81.8279 37.362)" stroke="black" stroke-width="0.4"/>
<line y1="-0.2" x2="14.048" y2="-0.2" transform="matrix(-0.673722 0.738985 -0.787123 -0.616796 85.1234 39.1844)" stroke="black" stroke-width="0.4"/>
<line y1="-0.2" x2="14.4902" y2="-0.2" transform="matrix(0.726953 0.686687 -0.742881 0.669424 72.3781 39.8936)" stroke="black" stroke-width="0.4"/>
<line y1="-0.2" x2="14.4902" y2="-0.2" transform="matrix(0.726953 0.686687 -0.742881 0.669424 74.5751 37.0838)" stroke="black" stroke-width="0.4"/>
</svg>
