
    <svg
      width="150"
      height="150"
      viewBox="0 0 150 150"
      fill="none"
      xmlns="http://www.w3.org/2000/svg"
    >
      <style>
        #ball {
          animation: ballMove 2s ease-in-out infinite alternate; /* Animation for ball movement */
        }

        #string {
          animation: stringMove 2s ease-in-out infinite alternate; /* Animation for string movement */
        }

        @keyframes ballMove {
          from {
            transform: translateX(-2px); /* Move ball slightly to the left */
          }
          to {
            transform: translateX(-4px); /* Move ball slightly to the right */
          }
        }

        @keyframes stringMove {
          from {
            transform: translateY(-5px); /* Move string slightly upwards */
          }
          to {
            transform: translateY(1px); /* Move string slightly downwards */
          }
        }
      </style>
      <g id="yarn">
        <g id="Group 8">
          <rect
            id="string"
            x="29"
            y="55"
            width="5"
            height="88"
            fill="#E99005"
          />
          <g id="ball">
            <path
              id="Ellipse 7"
              d="M30.071 64.1438C36.9443 86.343 48.4723 101.177 72.6019 98.3355C96.7315 95.4943 119.801 86.8127 114.161 53.39C107.287 23.9475 93.9623 9.75917 69.8326 12.6004C37.4849 16.4094 23.1978 41.9446 30.071 64.1438Z"
              fill="#E99005"
            />
            <path
              id="Vector 3"
              d="M55 96.5C65.8787 69.2846 73.3045 52.3849 92 15.5C95.1283 17.49 96.2558 18.4572 97.5 20C84.8504 54.0359 76.3261 70.6922 60 98.5L55 96.5Z"
              stroke="black"
            />
            <path
              id="Vector 4"
              d="M29.5 44.5C54.1386 57.0806 72.1566 67.2236 105 86.5C102.653 87.7904 101.155 89.6649 99.5 90C68.5539 74.8048 52.6628 64.6062 28.2122 48.8166C29.2341 47.9018 28.4781 45.4148 29.5 44.5Z"
              stroke="black"
            />
            <path
              id="Vector 5"
              d="M28.2293 53.7043C49.7294 71.2043 65.4744 72.8966 98.3177 92.1729C95.9708 93.4634 94.1554 93.6649 92.5 94C61.5539 78.8049 52.9506 76.7896 28.5 61C29.5219 60.0853 27.2075 54.619 28.2293 53.7043Z"
              stroke="black"
              stroke-width="0.5"
            />
            <g id="Group 4">
              <line
                id="Line 1"
                x1="32.2145"
                y1="35.5484"
                x2="72.2145"
                y2="54.5484"
                stroke="#1D1201"
              />
              <line
                id="Line 2"
                x1="82.2293"
                y1="58.5557"
                x2="113.229"
                y2="74.5557"
                stroke="#1D1201"
              />
            </g>
            <g id="Group 5">
              <line
                id="Line 1_2"
                x1="32.2145"
                y1="35.5484"
                x2="72.2145"
                y2="54.5484"
                stroke="#1D1201"
              />
              <line
                id="Line 2_2"
                x1="82.2293"
                y1="58.5557"
                x2="113.229"
                y2="74.5557"
                stroke="#1D1201"
              />
            </g>
            <g id="Group 6">
              <line
                id="Line 1_3"
                x1="88.565"
                y1="14.9251"
                x2="61.9721"
                y2="50.3343"
                stroke="#1D1201"
                stroke-width="0.5"
              />
              <line
                id="Line 2_3"
                x1="46.2109"
                y1="72.1342"
                x2="39.2109"
                y2="83.1342"
                stroke="#1D1201"
                stroke-width="0.5"
              />
            </g>
            <path
              id="Rectangle 2"
              d="M69.0251 64L77.5 66L66.5 86.5L60.5 84L69.0251 64Z"
              fill="#E99005"
            />
            <g id="Group 7">
              <line
                id="Line 3"
                y1="-0.2"
                x2="14.048"
                y2="-0.2"
                transform="matrix(-0.673722 0.738985 -0.787123 -0.616796 103.828 44.362)"
                stroke="black"
                stroke-width="0.4"
              />
              <line
                id="Line 4"
                y1="-0.2"
                x2="14.048"
                y2="-0.2"
                transform="matrix(-0.673722 0.738985 -0.787123 -0.616796 107.123 46.1844)"
                stroke="black"
                stroke-width="0.4"
              />
              <line
                id="Line 5"
                y1="-0.2"
                x2="14.4902"
                y2="-0.2"
                transform="matrix(0.726953 0.686687 -0.742881 0.669424 94.3781 46.8936)"
                stroke="black"
                stroke-width="0.4"
              />
              <line
                id="Line 6"
                y1="-0.2"
                x2="14.4902"
                y2="-0.2"
                transform="matrix(0.726953 0.686687 -0.742881 0.669424 96.5751 44.0838)"
                stroke="black"
                stroke-width="0.4"
              />
            </g>
          </g>
        </g>
      </g>
    </svg>
